<?xml version="1.0" encoding="utf-8"?>
<!-- Generator: Adobe Illustrator 19.0.0, SVG Export Plug-In . SVG Version: 6.00 Build 0)  -->
<svg version="1.1" baseProfile="tiny" id="Layer_1" xmlns="http://www.w3.org/2000/svg" xmlns:xlink="http://www.w3.org/1999/xlink"
	 x="0px" y="0px" viewBox="0 0 632.9 162.8" xml:space="preserve">
<g>
	<path fill="#FFFFFF" d="M246.2,5.4h17.4c15.2,0,21.3,7.6,21.3,16.8c0,7.9-3.8,13.7-10,15.8v0.3c7.8,1.3,15,6.4,15,16.8
		c0,11.1-6.4,19.2-23.4,19.2h-20.4V5.4z M265.4,36.3c9.2,0,13.6-4.9,13.6-12.8c0-10.2-6.3-13.5-17.4-13.5h-9.6v26.3H265.4z
		 M264.9,69.3c9.8,0,19.1-2,19.1-13.9c0-10.1-8.4-14-20.6-14h-11.4v27.9H264.9z"/>
	<path fill="#FFFFFF" d="M298.7,51.4v-46h5.7v45.3c0,16.3,11,19.6,20.6,19.6c10.7,0,20.7-4.4,20.7-21.9V5.4h5.7v43.3
		c0,21.5-15,26.7-26.5,26.7C312.3,75.4,298.7,70.7,298.7,51.4"/>
	<path fill="#FFFFFF" d="M378.4,4.5h16.9c21.8,0,38.1,10.4,38.1,34.2c0,24.2-15,34.7-37.5,34.7h-17.5V4.5z M397,68.4
		c18.4,0,30.4-9.5,30.4-28.6c0-20.7-13.4-30.3-32.3-30.3h-10.9v58.9H397z"/>
	<polygon fill="#FFFFFF" points="443.6,4.5 449.4,4.5 449.4,36.2 489.4,36.2 489.4,4.5 495.1,4.5 495.1,73.3 489.4,73.3 489.4,41.3 
		449.4,41.3 449.4,73.3 443.6,73.3 	"/>
	<path fill="#FFFFFF" d="M530.3,4.5h7.5l25.5,68.8h-6.4L547,46.2h-28.2l-10.9,27.2h-6.3L530.3,4.5z M545.3,41.2L533.6,9l-12.9,32.2
		H545.3z"/>
	<path fill="#FFFFFF" d="M571.3,4.5h17.4c15.2,0,21.3,7.6,21.3,16.8c0,7.9-3.8,13.7-10,15.8v0.3c7.8,1.3,15,6.4,15,16.8
		c0,11.1-6.4,19.2-23.4,19.2h-20.4V4.5z M590.5,35.3c9.2,0,13.6-4.9,13.6-12.8c0-10.2-6.3-13.5-17.4-13.5H577v26.3H590.5z M590,68.4
		c9.8,0,19.1-2,19.1-13.9c0-10.1-8.4-14-20.6-14H577v27.9H590z"/>
	<rect x="624.7" y="4.5" fill="#FFFFFF" width="5.7" height="68.8"/>
	<polygon fill="#FFFFFF" points="176.5,92 195.5,92 213.6,143 234.4,92 252.5,92 252.5,157 236.8,157 236.8,132.8 237.5,117.6 
		237.1,117.6 221.9,157 204.4,157 191.5,117.5 191.2,117.5 192.1,132.8 192.1,157 176.5,157 	"/>
	<path fill="#FFFFFF" d="M257.8,124.4c0-20.5,13.6-33.4,35.8-33.4c23.6,0,33.8,14.2,33.8,33.6c0,20.7-12.4,33.5-35.6,33.5
		C269,158.1,257.8,145.2,257.8,124.4 M311.5,124.5c0-12.1-5.6-21.1-18.8-21.1c-13.8,0-19.1,9-19.1,21c0,11.9,5.2,21.5,18.5,21.5
		C306.4,145.8,311.5,136.6,311.5,124.5"/>
	<polygon fill="#FFFFFF" points="332.7,92 351.7,92 369.8,143 390.6,92 408.7,92 408.7,157 393.1,157 393.1,132.8 393.7,117.6 
		393.4,117.6 378.1,157 360.7,157 347.8,117.5 347.4,117.5 348.3,132.8 348.3,157 332.7,157 	"/>
	<polygon fill="#FFFFFF" points="418.2,92 460.8,92 460.8,104.2 433.8,104.2 433.8,118.7 458.8,118.7 458.8,130.1 433.8,130.1 
		433.8,144.8 463,144.8 463,157 418.2,157 	"/>
	<polygon fill="#FFFFFF" points="468.6,92 486.7,92 511.9,136.6 512.2,136.6 511.8,129.3 511.8,92 527.4,92 527.4,157 508.7,157 
		484.2,113.5 483.8,113.5 484.2,122.2 484.2,157 468.6,157 	"/>
	<polygon fill="#FFFFFF" points="550.6,104.2 530.1,104.2 530.1,92 586.6,92 586.6,104.2 566.2,104.2 566.2,157 550.6,157 	"/>
	<path fill="#FFFFFF" d="M584.1,152.9l4.5-11.6c5.7,2.3,9.9,4,17.1,4c7.8,0,11.4-3,11.4-7c0-10.6-30.9-6.4-30.9-28.5
		c0-12.5,11.9-18.8,23.3-18.8c10.3,0,15.6,2.1,20.3,5l-4.5,11.5c-4.8-2.1-8.7-3.5-15.4-3.5c-5.1,0-8.5,2.5-8.5,6.1
		c0,8.6,31.4,7.7,31.4,27.7c0,14.2-13.6,20.4-27,20.4C595.2,158.1,589,155.5,584.1,152.9"/>
	<path fill="#FFFFFF" d="M115.1,68.4c-0.8,4.3-1.5,8.3-2.1,12.3h16.2c0.8-6.4,1.6-12.7,2.5-19.2L115.1,68.4z"/>
	<path fill="#FFFFFF" d="M149.6,60c-3,6.4-5.8,13.2-8.4,20.8h16.5c1.5-3.9,3.2-7.8,4.8-11.4L149.6,60z"/>
	<path fill="#FFFFFF" d="M131.6,101.5c-0.9-6.5-1.7-12.9-2.5-19.2H113c0.6,3.9,1.3,8,2.1,12.3L131.6,101.5z"/>
	<path fill="#FFFFFF" d="M141.2,82.4c2.7,7.6,5.4,14.4,8.4,20.8l12.9-9.4c-1.6-3.6-3.3-7.4-4.8-11.4H141.2z"/>
	<path fill="#FFFFFF" d="M95.9,48.3c2.5,3.7,4.9,7,7.2,10.2l11.4-11.4c-4-5.2-8-10.4-11.8-15.3L95.9,48.3z"/>
	<path fill="#FFFFFF" d="M134.7,26.9c-1.7-3.8-3.3-7.7-4.7-11.4l-15.8,2.5c2.4,6.6,5.2,13.4,8.7,20.7L134.7,26.9z"/>
	<path fill="#FFFFFF" d="M104.3,59.7c3.3,2.4,6.6,4.7,10.2,7.2l16.5-6.8c-5-3.9-10.2-7.9-15.3-11.8L104.3,59.7z"/>
	<path fill="#FFFFFF" d="M144.8,48.5l2.5-15.8c-3.7-1.4-7.6-3-11.4-4.6l-11.7,11.7C131.4,43.2,138.2,46.1,144.8,48.5"/>
	<path fill="#FFFFFF" d="M68.1,47.4c4.3,0.8,8.4,1.5,12.3,2.1V33.3c-6.4-0.8-12.8-1.6-19.1-2.5l-0.1,0L68.1,47.4z"/>
	<path fill="#FFFFFF" d="M80.4,21.3V4.8C76.5,3.3,72.7,1.7,69.1,0l-9.4,12.9C66,15.9,72.8,18.7,80.4,21.3"/>
	<path fill="#FFFFFF" d="M82.1,49.8c4-0.6,8-1.3,12.3-2.1l6.8-16.5l-0.1,0c-5.9,0.8-12.6,1.6-19.1,2.5V49.8z"/>
	<path fill="#FFFFFF" d="M82.1,5.1v16.5c7.6-2.7,14.4-5.4,20.8-8.4L93.4,0.3C89.8,1.9,86,3.6,82.1,5.1"/>
	<path fill="#FFFFFF" d="M31.7,59.9l-0.2,0.2L48,66.9c3.6-2.5,7-4.9,10.2-7.2L46.8,48.2C41.7,52.2,36.4,56.3,31.7,59.9"/>
	<path fill="#FFFFFF" d="M15.2,32.7l2.5,15.8c6.6-2.4,13.4-5.2,20.6-8.7L26.6,28.1C22.8,29.7,18.9,31.3,15.2,32.7"/>
	<path fill="#FFFFFF" d="M59.8,31.8c-3.7,4.8-7.8,10.1-11.8,15.3l11.4,11.4c2.4-3.3,4.7-6.6,7.2-10.2L59.8,31.8z"/>
	<path fill="#FFFFFF" d="M39.4,38.6c3.5-7.3,6.3-14,8.7-20.6l-15.8-2.5c-1.4,3.7-3,7.6-4.7,11.4L39.4,38.6z"/>
	<path fill="#FFFFFF" d="M33.3,82.4c-0.8,6.3-1.6,12.8-2.4,19l0,0.2l16.5-6.8c0.8-4.3,1.5-8.3,2.1-12.3H33.3z"/>
	<path fill="#FFFFFF" d="M12.9,103.1c3-6.4,5.8-13.2,8.4-20.8l-16.5,0C3.3,86.3,1.7,90.1,0,93.7L12.9,103.1z"/>
	<path fill="#FFFFFF" d="M49.5,80.7c-0.6-4-1.4-8.2-2.1-12.3l-16.5-6.8c0.8,6.3,1.7,12.8,2.5,19.2H49.5z"/>
	<path fill="#FFFFFF" d="M21.3,80.7c-2.7-7.6-5.4-14.4-8.4-20.8L0,69.4c1.6,3.6,3.2,7.4,4.8,11.4L21.3,80.7z"/>
	<path fill="#FFFFFF" d="M66.6,114.8c-2.5-3.7-4.9-7-7.2-10.2L47.9,116c3.8,4.9,7.6,9.9,11.8,15.3L66.6,114.8z"/>
	<path fill="#FFFFFF" d="M27.7,136.2c1.7,3.8,3.3,7.7,4.7,11.4l15.8-2.5c-2.4-6.7-5.2-13.4-8.7-20.7L27.7,136.2z"/>
	<path fill="#FFFFFF" d="M46.8,114.9l11.4-11.4c-3.3-2.4-6.7-4.8-10.2-7.2L31.5,103l0.5,0.4C37,107.3,41.9,111.1,46.8,114.9"/>
	<path fill="#FFFFFF" d="M26.6,135l11.7-11.7c-7.3-3.5-14-6.4-20.6-8.7l-2.5,15.8C18.9,131.8,22.7,133.4,26.6,135"/>
	<path fill="#FFFFFF" d="M82.1,113v16.2c6.3,0.8,12.6,1.6,18.8,2.4l0.4,0l-6.8-16.5C90,114.3,86,113.6,82.1,113"/>
	<path fill="#FFFFFF" d="M93.4,162.5l9.4-12.9c-6.4-3-13.2-5.8-20.8-8.4v16.5C86,159.2,89.8,160.8,93.4,162.5"/>
	<path fill="#FFFFFF" d="M80.4,129.5v-16.2c-4,0.6-8,1.3-12.3,2.1l-6.8,16.5C67.5,131.1,74,130.3,80.4,129.5"/>
	<path fill="#FFFFFF" d="M80.4,158v-16.5c-7.6,2.7-14.4,5.4-20.8,8.4l9.4,12.9C72.7,161.2,76.5,159.5,80.4,158"/>
	<path fill="#FFFFFF" d="M115.7,114.9c5.1-4,10.3-8,15.3-11.8l-16.5-6.8c-3.6,2.5-7,4.9-10.2,7.2L115.7,114.9z"/>
	<path fill="#FFFFFF" d="M124.2,123.3l11.7,11.7c3.8-1.7,7.7-3.3,11.4-4.7l-2.5-15.8C138.3,117,131.5,119.9,124.2,123.3"/>
	<path fill="#FFFFFF" d="M102.7,131.3c4.2-5.4,8-10.3,11.8-15.3l-11.4-11.4c-2.3,3.2-4.7,6.6-7.2,10.2L102.7,131.3z"/>
	<path fill="#FFFFFF" d="M130.1,147.6c1.4-3.8,3-7.6,4.7-11.4l-11.7-11.7c-3.5,7.3-6.3,14-8.7,20.7L130.1,147.6z"/>
	<path fill="#FFFFFF" d="M205.2,5.4h7.5l25.5,68.8h-6.4l-9.8-27.2h-28.2l-10.9,27.2h-6.3L205.2,5.4z M220.2,42.1L208.5,9.9
		l-12.9,32.2H220.2z"/>
</g>
</svg>
